<svg width="96" height="57" viewBox="0 0 96 57" fill="none" xmlns="http://www.w3.org/2000/svg">
<mask id="path-1-inside-1_322_451" fill="white">
<path d="M21.8252 0.181641L28 4L29.0527 6H48V6.33301L50 3L55.5 0.5H61L38 43.5L28 23.7266V47.8877L28.0117 47.8945L28 47.9092V48L27.9492 47.9746L21 57H3V46H14.5L17.0557 42.6143L17 42.5869V18H0V12L5.5 6H19.0342L16 0L21.8252 0.181641ZM96 32L53 56L57 46L85.8984 32.0479L71 18.5L75.6973 9.64062L96 32ZM51.5439 52.5908H39.2314L63.7314 5.5H74.7314L51.5439 52.5908ZM38 23L41 18H35.3682L38 23Z"/>
</mask>
<path d="M21.8252 0.181641L28 4L29.0527 6H48V6.33301L50 3L55.5 0.5H61L38 43.5L28 23.7266V47.8877L28.0117 47.8945L28 47.9092V48L27.9492 47.9746L21 57H3V46H14.5L17.0557 42.6143L17 42.5869V18H0V12L5.5 6H19.0342L16 0L21.8252 0.181641ZM96 32L53 56L57 46L85.8984 32.0479L71 18.5L75.6973 9.64062L96 32ZM51.5439 52.5908H39.2314L63.7314 5.5H74.7314L51.5439 52.5908ZM38 23L41 18H35.3682L38 23Z" fill="url(#paint0_linear_322_451)"/>
<path d="M21.8252 0.181641L22.3511 -0.66888L22.1237 -0.809538L21.8564 -0.817874L21.8252 0.181641ZM28 4L28.8849 3.53422L28.7579 3.2929L28.5259 3.14948L28 4ZM29.0527 6L28.1678 6.46578L28.449 7H29.0527V6ZM48 6H49V5H48V6ZM48 6.33301H47V9.94302L48.8575 6.84754L48 6.33301ZM50 3L49.5862 2.08963L49.3027 2.21848L49.1425 2.48547L50 3ZM55.5 0.5V-0.5H55.2834L55.0862 -0.410366L55.5 0.5ZM61 0.5L61.8818 0.971652L62.6689 -0.5H61V0.5ZM38 43.5L37.1076 43.9513L37.9751 45.6667L38.8818 43.9717L38 43.5ZM28 23.7266L28.8924 23.2753L27 23.7266H28ZM28 47.8877H27V48.4621L27.4961 48.7515L28 47.8877ZM28.0117 47.8945L28.7926 48.5192L29.5163 47.6145L28.5156 47.0308L28.0117 47.8945ZM28 47.9092L27.2191 47.2845L27 47.5584V47.9092H28ZM28 48L27.5528 48.8944L29 49.618V48H28ZM27.9492 47.9746L28.3964 47.0802L27.6595 46.7117L27.1569 47.3645L27.9492 47.9746ZM21 57V58H21.4921L21.7923 57.6101L21 57ZM3 57H2V58H3V57ZM3 46V45H2V46H3ZM14.5 46V47H14.9981L15.2981 46.6025L14.5 46ZM17.0557 42.6143L17.8538 43.2167L18.5832 42.2505L17.4966 41.7167L17.0557 42.6143ZM17 42.5869H16V43.2098L16.5591 43.4845L17 42.5869ZM17 18H18V17H17V18ZM0 18H-1V19H0V18ZM0 12L-0.737154 11.3243L-1 11.611V12H0ZM5.5 6V5H5.0601L4.76285 5.32428L5.5 6ZM19.0342 6V7H20.6605L19.9266 5.54872L19.0342 6ZM16 0L16.0312 -0.999514L14.3474 -1.05202L15.1076 0.451276L16 0ZM96 32L96.4874 32.8732L97.5865 32.2597L96.7403 31.3278L96 32ZM53 56L52.0715 55.6286L51.0236 58.2483L53.4874 56.8732L53 56ZM57 46L56.5652 45.0995L56.2157 45.2682L56.0715 45.6286L57 46ZM85.8984 32.0479L86.3332 32.9484L87.667 32.3044L86.5712 31.308L85.8984 32.0479ZM71 18.5L70.1165 18.0316L69.7528 18.7175L70.3272 19.2398L71 18.5ZM75.6973 9.64062L76.4376 8.96839L75.4806 7.91446L74.8138 9.17219L75.6973 9.64062ZM51.5439 52.5908V53.5908H52.1662L52.4411 53.0326L51.5439 52.5908ZM39.2314 52.5908L38.3443 52.1293L37.5839 53.5908H39.2314V52.5908ZM63.7314 5.5V4.5H63.1245L62.8443 5.03846L63.7314 5.5ZM74.7314 5.5L75.6286 5.94175L76.3385 4.5H74.7314V5.5ZM38 23L37.1151 23.4658L37.943 25.0386L38.8575 23.5145L38 23ZM41 18L41.8575 18.5145L42.7662 17H41V18ZM35.3682 18V17H33.7117L34.4833 18.4658L35.3682 18ZM21.8252 0.181641L21.2993 1.03216L27.4741 4.85052L28 4L28.5259 3.14948L22.3511 -0.66888L21.8252 0.181641ZM28 4L27.1151 4.46578L28.1678 6.46578L29.0527 6L29.9376 5.53422L28.8849 3.53422L28 4ZM29.0527 6V7H48V6V5H29.0527V6ZM48 6H47V6.33301H48H49V6H48ZM48 6.33301L48.8575 6.84754L50.8575 3.51453L50 3L49.1425 2.48547L47.1425 5.81848L48 6.33301ZM50 3L50.4138 3.91037L55.9138 1.41037L55.5 0.5L55.0862 -0.410366L49.5862 2.08963L50 3ZM55.5 0.5V1.5H61V0.5V-0.5H55.5V0.5ZM61 0.5L60.1182 0.0283477L37.1182 43.0283L38 43.5L38.8818 43.9717L61.8818 0.971652L61 0.5ZM38 43.5L38.8924 43.0487L28.8924 23.2753L28 23.7266L27.1076 24.1779L37.1076 43.9513L38 43.5ZM28 23.7266H27V47.8877H28H29V23.7266H28ZM28 47.8877L27.4961 48.7515L27.5078 48.7583L28.0117 47.8945L28.5156 47.0308L28.5039 47.0239L28 47.8877ZM28.0117 47.8945L27.2309 47.2698L27.2191 47.2845L28 47.9092L28.7809 48.5339L28.7926 48.5192L28.0117 47.8945ZM28 47.9092H27V48H28H29V47.9092H28ZM28 48L28.4472 47.1056L28.3964 47.0802L27.9492 47.9746L27.502 48.869L27.5528 48.8944L28 48ZM27.9492 47.9746L27.1569 47.3645L20.2077 56.3899L21 57L21.7923 57.6101L28.7416 48.5847L27.9492 47.9746ZM21 57V56H3V57V58H21V57ZM3 57H4V46H3H2V57H3ZM3 46V47H14.5V46V45H3V46ZM14.5 46L15.2981 46.6025L17.8538 43.2167L17.0557 42.6143L16.2575 42.0118L13.7019 45.3975L14.5 46ZM17.0557 42.6143L17.4966 41.7167L17.4409 41.6894L17 42.5869L16.5591 43.4845L16.6148 43.5118L17.0557 42.6143ZM17 42.5869H18V18H17H16V42.5869H17ZM17 18V17H0V18V19H17V18ZM0 18H1V12H0H-1V18H0ZM0 12L0.737154 12.6757L6.23715 6.67572L5.5 6L4.76285 5.32428L-0.737154 11.3243L0 12ZM5.5 6V7H19.0342V6V5H5.5V6ZM19.0342 6L19.9266 5.54872L16.8924 -0.451276L16 0L15.1076 0.451276L18.1418 6.45128L19.0342 6ZM16 0L15.9688 0.999514L21.794 1.18115L21.8252 0.181641L21.8564 -0.817874L16.0312 -0.999514L16 0ZM96 32L95.5126 31.1268L52.5126 55.1268L53 56L53.4874 56.8732L96.4874 32.8732L96 32ZM53 56L53.9285 56.3714L57.9285 46.3714L57 46L56.0715 45.6286L52.0715 55.6286L53 56ZM57 46L57.4348 46.9005L86.3332 32.9484L85.8984 32.0479L85.4637 31.1473L56.5652 45.0995L57 46ZM85.8984 32.0479L86.5712 31.308L71.6728 17.7602L71 18.5L70.3272 19.2398L85.2257 32.7877L85.8984 32.0479ZM71 18.5L71.8835 18.9684L76.5808 10.1091L75.6973 9.64062L74.8138 9.17219L70.1165 18.0316L71 18.5ZM75.6973 9.64062L74.9569 10.3129L95.2597 32.6722L96 32L96.7403 31.3278L76.4376 8.96839L75.6973 9.64062ZM51.5439 52.5908V51.5908H39.2314V52.5908V53.5908H51.5439V52.5908ZM39.2314 52.5908L40.1186 53.0524L64.6186 5.96154L63.7314 5.5L62.8443 5.03846L38.3443 52.1293L39.2314 52.5908ZM63.7314 5.5V6.5H74.7314V5.5V4.5H63.7314V5.5ZM74.7314 5.5L73.8343 5.05825L50.6468 52.1491L51.5439 52.5908L52.4411 53.0326L75.6286 5.94175L74.7314 5.5ZM38 23L38.8575 23.5145L41.8575 18.5145L41 18L40.1425 17.4855L37.1425 22.4855L38 23ZM41 18V17H35.3682V18V19H41V18ZM35.3682 18L34.4833 18.4658L37.1151 23.4658L38 23L38.8849 22.5342L36.2531 17.5342L35.3682 18Z" fill="#D4FFEC" mask="url(#path-1-inside-1_322_451)"/>
<defs>
<linearGradient id="paint0_linear_322_451" x1="34" y1="19.5" x2="21.5" y2="57" gradientUnits="userSpaceOnUse">
<stop stop-color="#22533D"/>
<stop offset="0.138889" stop-color="#296349"/>
<stop offset="1" stop-color="#4CB988"/>
</linearGradient>
</defs>
</svg>
